# xmcd
#
# Track frame offsets: 
#        150
#        14872
#        32697
#        48524
#        66266
#        80200
#        97312
#        114321
#        131274
#        166668
#        181090
#        196655
#        212330
#        228298
#        245583
#        260112
#        275770
#        293135
#        310559
#        326694
#
# Disc length: 4541 seconds
#
# Revision: 0
# Processed by: cddbd v1.5.2PL0 Copyright (c) Steve Scherf et al.
# Submitted via: ExactAudioCopy v1.0b3
#
DISCID=2011bb14
DTITLE=Various Artist - Main Area Vol. 1 - CD 2
DYEAR=1900
DGENRE=
TTITLE0=Blank and Jones - Sound Of Machines (RhythmusRaum Remix Edit)
TTITLE1=Ian Van Dahl - Just A Girl (Megara Vs. DJ Lee Radio Cut)
TTITLE2=Cosmic Gate - Should've Known (Radio Edit)
TTITLE3=Cascada - Can't Stop The Rain (Mainfield Hardspace Radio Edit)
TTITLE4=Ron Van Den Beuken - Find The Way (Radio Edit)
TTITLE5=Andre Visior - Skyline (Original Radio Version)
TTITLE6=4 Strings - Mainline (Radio Edit) (TC Mix)
TTITLE7=Armin Van Buuren - Love You More (Radio Edit)
TTITLE8=T4L - Maximus
TTITLE9=Kyau Vs. Albert - Are You Fine? (Original Radio Mix)
TTITLE10=Arksun - Arisen (Airbase Pres. Parc Rmx Edit)
TTITLE11=Ronski Speed - The Space We Are (Original Radio Mix)
TTITLE12=Interstate - Remember Me (Terry Bones Rmx Edit)
TTITLE13=Stoneface and Terminal - Venus (Original Radio Mix)
TTITLE14=Above and Beyond - Can't Sleep (Radio Edit)
TTITLE15=Fred Baker Pres. Odyssey - Magic Pad (Fred Baker 2006 Radio C
TTITLE15=ut)
TTITLE16=Dr. Zorn - Episode 1 (The Zorneus Project Radio Mix)
TTITLE17=Mr. Mibay - Rock Da House (Freddy Fader Remix Edit)
TTITLE18=DJ Machine @ Wallringtunnel - 7 Days 1 Week 2006 (DJ Brush Ti
TTITLE18=me Tunnel 11 Radio Mix)
TTITLE19=Diva DJ's Vs. Nicky French - Total Eclipse Of The Heart 2006 
TTITLE19=(Saint Radio Edit)
EXTD=
EXTT0=
EXTT1=
EXTT2=
EXTT3=
EXTT4=
EXTT5=
EXTT6=
EXTT7=
EXTT8=
EXTT9=
EXTT10=
EXTT11=
EXTT12=
EXTT13=
EXTT14=
EXTT15=
EXTT16=
EXTT17=
EXTT18=
EXTT19=
PLAYORDER=
